<svg width="450" height="465" viewBox="0 0 450 465" fill="none" xmlns="http://www.w3.org/2000/svg">
<path d="M245.263 48.4162C260.448 46.5987 281.808 33.3162 288.893 19.4327C290.628 16.0312 294.273 6.83666 296.248 4.80966C298.168 4.37516 297.538 4.23966 298.943 4.93966C303.638 13.3487 287.808 39.3552 279.918 43.8507C274.348 47.0247 268.963 50.8247 263.468 54.0187C262.978 54.3027 263.243 55.0277 263.308 55.5542C263.843 56.0532 264.453 56.4827 265.163 56.7007C290.423 64.4187 315.988 47.0532 323.678 23.0102C324.048 21.8437 324.753 20.7532 325.923 20.2277C328.353 21.0987 328.853 24.7212 328.358 26.9457C321.493 57.9397 290.298 76.0047 259.923 66.9562C255.158 65.5377 245.998 61.5302 241.823 61.0002C230.688 59.5872 218.509 62.1757 207.237 58.9432C188.748 54.7372 171.663 47.1937 153.607 42.0307C149.11 40.7447 138.234 47.9617 134.542 50.8627C125.911 57.5432 120.34 67.4227 119.09 78.2652C117.33 93.0247 120.387 104.073 129.566 115.676C134.523 121.943 143.175 129.629 151.217 129.813C153.465 129.865 153.927 130.03 155.6 128.668C155.821 123.799 147.722 119.165 147.757 114.099C148.681 112.678 150.896 111.623 152.216 112.168C161.829 116.136 173.199 119.119 183.627 117.592C185.532 117.313 186.535 115.308 187.408 113.692C187.895 112.328 194.25 109.09 194.25 109.09L201.5 107.199C201.5 107.199 205.161 108.037 211.75 106.537C211.75 106.537 213.944 106.301 215 106.199C216.347 106.069 219.518 106.537 219.518 106.537L223.25 106.949C223.25 106.949 227.198 107.69 229.893 108.263L233.478 109.09C245.003 111.515 249.253 117.494 254.228 127.444C269.268 130.979 280.668 136.259 294.333 143.272C300.153 146.259 309.008 147.491 315.313 150.811C337.428 162.451 367.453 182.003 378.753 204.94C393.108 213.504 407.658 220.651 414.773 236.97C419.248 247.231 418.993 252.746 427.413 261.819C431.213 265.914 434.673 276.64 436.128 281.969C438.398 290.131 438.358 297.641 438.838 305.983C440.873 318.807 445.593 336.822 439.253 349.573L439.003 350.362C434.233 360.441 436.508 364.561 433.938 375.086C432.758 379.918 428.978 383.954 427.713 387.92C426.378 392.23 425.808 396.867 424.543 401.175C419.393 418.759 414.938 439.812 397.523 449.447C394.313 451.222 390.858 452.457 387.598 454.192C384.508 455.842 381.608 458.172 378.333 459.432C360.508 464.307 353.663 452.487 348.978 438.775C343.078 434.651 338.493 432.297 335.683 424.96C329.508 408.825 342.348 401.677 353.303 394.716C358.328 391.495 363.318 388.221 368.273 384.893C369.928 383.786 375.358 380.241 375.548 378.226C376.008 373.368 376.038 362.643 375.048 357.921C374.678 355.692 371.303 350.1 371.168 348.269C370.603 340.467 370.878 339.12 364.663 333.525C359.863 329.208 357.028 324.338 354.333 318.269C351.013 316.739 339.218 311.014 336.573 310.629C335.728 312.46 342.563 329.736 340.633 337.247C338.698 344.767 319.813 387.208 310.803 377.917C309.453 374.953 312.078 372.075 312.988 369.251C316.058 359.721 320.008 350.896 322.598 341.181C322.918 339.167 323.218 337.429 322.003 335.727C320.503 336.619 320.498 337.417 319.598 339.22C315.673 345.488 289.073 386.13 280.333 375.891C279.628 372.708 281.463 369.728 283.308 367.24C290.248 357.88 296.513 347.864 301.643 337.401C302.568 335.518 302.323 335.138 301.578 333.374C298.643 336.267 295.993 339.556 293.463 342.076C291.163 343.968 288.578 346.932 286.183 348.699C281.023 352.51 260.043 368.129 254.053 364.597C253.448 363.566 252.823 362.453 253.698 361.288C259.988 352.93 269.523 344.448 276.388 336.174C289.778 320.025 282.788 314.164 285.368 296.7L285.288 295.729L281.418 296.028L280.538 298.151C279.383 301.049 276.973 304.912 275.918 307.91C270.638 322.867 263.918 336.455 251.713 347.087C247.548 350.716 242.378 352.293 238.158 355.672L237.728 356.024C235.353 366.156 230.218 373.539 223.059 380.711C194.576 408.545 151.148 423.178 111.768 422.819C63.5481 422.379 8.1276 394.85 5.0111 341.25C4.9106 339.522 5.49258 338.012 6.76058 336.822C7.24958 336.665 7.82209 336.482 8.47759 336.272C17.5916 341.459 26.1536 348.719 36.8886 350.178C40.9986 350.736 43.3681 346.386 45.7106 344.356C51.7661 339.11 61.8751 347.667 68.4886 347.845C72.3586 347.949 73.5096 343.382 75.8466 341.527C81.6796 336.899 89.1826 342.497 96.2811 342.87C97.9376 341.981 97.3591 340.231 98.5381 339.01C102.257 335.159 112.505 340.386 115.342 335.395C114.867 331.772 106.482 328.666 103.411 326.97C83.8926 316.192 61.7341 313.958 39.9106 316.645C35.6166 317.173 28.6146 320.663 24.6456 319.11C24.4146 318.603 24.3121 317.963 24.5126 317.436C38.7646 279.849 94.5506 274.045 127.768 285.256C138.003 288.711 141.463 287.864 151.529 285.012C160.263 282.537 171.398 283.523 180.283 285.507C190.927 287.538 199.559 291.609 209.514 295.376C215.388 292.419 225.408 288.516 229.893 284.023C232.528 281.384 230.998 268.636 239.033 261.52C240.163 256.786 237.363 256.6 233.808 253.733C221.289 243.638 215.708 231.132 208.641 217.32C207.269 216.466 205.591 215.698 204.151 214.897C184.623 204.034 170.541 185.011 164.566 163.613C162.559 156.424 148.035 157.798 141.768 156.399C127.748 153.346 114.496 149.353 101.534 143.231C62.1106 124.61 44.4446 84.1037 74.9396 48.3267C86.2346 35.0752 97.9221 30.6212 114.685 26.4682C126.661 23.5017 137.216 25.3447 149.357 25.3832C158.391 25.1582 167.6 23.1062 176.654 23.4677C200.746 24.4302 224.043 37.8267 245.263 48.4162ZM105.982 126.545C109.403 128.133 117.955 132.853 121.035 132.643L121.788 132.186C120.982 129.653 119.995 130.147 118.487 128.211C116.423 125.558 114.504 122.713 112.578 119.954C100.284 102.359 97.0901 79.6537 106.886 60.2107C108.504 56.9997 111.298 52.3567 113.386 49.4757C115.097 47.1142 120.361 43.6117 121.498 40.7617L121.105 40.0342C120.303 40.0057 119.613 39.9447 118.816 40.0677C102.821 43.8577 90.8986 50.5842 82.0821 64.8257C76.3811 74.0522 74.5556 85.1567 77.0026 95.7227C80.1966 109.022 89.0366 116.678 100.287 123.518C101.85 124.468 104.306 125.905 105.982 126.545Z" fill="#841B0B"/>
<path d="M216.616 300.57L218.876 302.456C224.995 307.823 226.88 309.812 231.62 316.393C234.69 323.81 238.96 328.342 239.19 336.589C238.81 340.781 239.895 347.743 234.455 349.62C233.645 347.149 234.845 343.607 233.645 342.084C233.255 332.901 230.615 327.841 226.31 320.015C226.245 316.05 224.14 315.112 223.332 312.407C221.782 307.21 214.23 307.475 214.436 302.566C215.438 300.942 214.876 301.479 216.616 300.57Z" fill="#610802"/>
<path d="M236.345 330.353C239.435 334.823 238.505 342.981 235.805 347.361L235.415 347.238C237.08 342.494 231.625 331.954 236.345 330.353Z" fill="#6F1003"/>
<path d="M161.546 303.322C168.451 301.629 190.736 303.612 196.297 307.892C198.358 308.723 200.803 309.828 202.953 310.193L203.213 310.891L202.935 311.13C205.911 313.38 213.951 314.605 217.639 313.986L218.746 313.858C221.312 316.162 218.847 319.815 220.246 322.188L221.115 321.03C222.422 321.178 221.873 320.903 222.768 321.971L222.363 323.297L223.353 323.776C225.215 327.705 223.725 334.229 222.238 338.286C214.752 358.735 193.482 372.792 174.828 382.043C173.412 382.744 165.283 386.178 164.112 386.36C151.804 391.972 137.635 394.862 124.286 396.634L123.26 396.074C120.467 396.806 113.821 394.357 108.435 395.541C103.053 390.731 102.742 395.224 99.283 393.899C98.3245 389.43 98.2765 391.305 94.6775 389.821L94.602 389.066L96.4075 388.312L96.2175 387.557C93.6165 385.825 92.5755 385.167 89.692 383.862L88.4015 385.059L87.708 384.835C86.476 382.91 87.877 381.928 87.3025 379.278L86.513 378.772C84.7535 378.753 84.1035 378.678 82.376 379.236L82.3035 381.239C81.621 380.622 81.516 377.102 81 375.991C79.765 373.33 79.884 375.782 78.2945 372.874C77.649 373.532 77.813 373.712 77.5975 374.817L78.5215 375.69C77.756 376.894 78.2505 376.44 76.982 377.099C76.535 375.374 75.5665 371.149 74.439 369.84C73.9955 369.325 71.6155 368.725 70.796 367.303C73.65 367.604 76.1895 368.325 78.343 366.681C78.3325 365.702 78.3145 365.77 78.8455 364.947C84.7855 365.146 91.6845 364.372 97.804 364.943C98.872 365.043 99.724 364.965 100.431 364.203C99.029 362.576 97.822 364.348 96.525 362.957C97.2465 362.255 97.4915 362.213 98.443 361.796L98.749 361.665L98.1985 361.769L97.7975 361.227L97.095 361.238C101.668 360.25 103.827 359.344 106.423 355.653C107.434 354.712 108.251 353.851 108.313 352.491C106.117 350.696 104.598 352.333 102.883 350.852L103.136 350.215C103.278 349.856 104.276 347.368 104.301 347.347C108.389 343.851 113.004 347.257 117.628 344.441C121.029 342.369 123.773 338.072 126.811 336.763C129.324 336.736 128.04 337.222 130.832 338.401C140.781 336.402 138.811 307.295 161.546 303.322Z" fill="url(#paint0_linear_37_279)"/>
<path d="M123.26 396.074C124.294 395.775 125.038 395.61 126.094 395.4L125.803 395.354C126.91 395.09 128.32 394.707 129.436 394.573C137.816 393.559 145.702 390.791 154.081 389.616L153.915 389.263C153.141 388.748 150.612 388.316 149.569 388.083C150.881 387.415 152.686 388.418 154.682 388.333C157.951 388.193 160.974 385.949 164.112 386.36C151.804 391.972 137.635 394.862 124.286 396.634L123.26 396.074Z" fill="#E12E09"/>
<path d="M217.032 309.638C219.784 310.709 224.96 317.398 226.31 320.015C230.615 327.841 233.255 332.901 233.645 342.084C232.865 345.635 234.11 348.224 232.82 352.001C230.845 358.045 228.9 364.454 225.635 369.955C223.448 373.633 219.124 376.598 216.067 379.514C191.945 402.517 159.62 412.326 127.416 416.845C118.143 419.301 92.031 415.537 82.372 413.224C81.835 412.688 76.6565 411.624 75.505 411.33C57.021 406.602 38.4055 396.946 26.8175 381.37C24.058 377.66 21.209 374.104 19.122 370.023C16.501 364.898 10.1185 349.037 11.8395 344.084C17.14 344.342 32.3945 365.253 48.329 349.402C51.8405 349.872 56.0425 351.078 57.478 354.623C56.11 355.491 53.7505 356.252 53.118 357.119C54.274 358.846 59.8345 358.535 61.065 360.842C61.6145 361.872 61.3945 362.032 62.405 362.667L63.804 362.166C63.9775 362.876 63.682 363.357 63.41 364.06C65.347 366.151 72.8925 365.774 75.695 365.665C76.6015 365.629 77.797 364.948 78.8455 364.947C78.3145 365.77 78.3325 365.702 78.343 366.681C76.1895 368.325 73.65 367.604 70.796 367.303C71.6155 368.725 73.9955 369.325 74.439 369.84C75.5665 371.149 76.535 375.374 76.982 377.099C78.2505 376.44 77.756 376.894 78.5215 375.69L77.5975 374.817C77.813 373.712 77.649 373.532 78.2945 372.874C79.884 375.782 79.765 373.33 81 375.991C81.516 377.102 81.621 380.622 82.3035 381.239L82.376 379.236C84.1035 378.678 84.7535 378.753 86.513 378.772L87.3025 379.278C87.877 381.928 86.476 382.91 87.708 384.835L88.4015 385.059L89.692 383.862C92.5755 385.167 93.6165 385.825 96.2175 387.557L96.4075 388.312L94.602 389.066L94.6775 389.821C98.2765 391.305 98.3245 389.43 99.283 393.899C102.742 395.224 103.053 390.731 108.435 395.541C113.821 394.357 120.467 396.806 123.26 396.074L124.286 396.634C137.635 394.862 151.804 391.972 164.112 386.36C165.283 386.178 173.412 382.744 174.828 382.043C193.482 372.792 214.752 358.735 222.238 338.286C223.725 334.229 225.215 327.705 223.353 323.776C221.041 316.947 221.033 316.141 217.032 309.638Z" fill="url(#paint1_linear_37_279)"/>
<path d="M108.435 395.541C113.821 394.357 120.467 396.806 123.26 396.074L124.286 396.634C120.216 397.517 107.53 398.553 103.56 397.625C103.835 396.67 108.116 398.259 109.758 396.908L110.821 397.427C109.51 396.78 109.134 396.737 108.435 395.541Z" fill="#C51204"/>
<path d="M302.815 175.51C311.2 171.932 319.025 177.656 325.945 182.025C334.96 186.993 347.63 195.466 355.03 202.574C357.08 204.769 358.86 206.63 361.045 208.704C361.745 208.733 362.895 208.671 363.63 208.653C365.395 207.54 364.9 207.821 365.98 205.808C366.91 207.621 367.61 208.872 368.215 210.832L368.745 210.756C372.73 206.974 370.195 210.064 373.79 209.612C377.275 224.893 373.765 235.623 366.125 249.39C365.92 249.765 365.81 249.83 365.455 250.048C363.755 253.138 362.715 253.888 359.62 255.587C345.53 261.337 335.19 259.536 320.31 257.154C308.67 254.646 296.825 250.191 286.785 243.746C286.64 243.429 270.065 227.66 268.88 226.795C267.035 225.61 264.8 223.937 262.97 222.648L263.425 221.682C264.715 221.133 265.09 221.008 266.17 220.129L265.7 220.201C276.45 210.977 289.015 204.361 296.54 190.426C297.26 189.094 297.755 183.919 298.195 183.286C300.665 179.723 301.13 179.632 302.815 175.51Z" fill="url(#paint2_linear_37_279)"/>
<path d="M362.875 210.862C358.555 210.109 347.305 198.278 343.69 194.878L343.88 196.808L343.13 196.915C339.24 190.719 337.3 191.143 331.185 187.615C331.01 187.515 325.275 182.873 325.225 182.787L325.945 182.025C334.96 186.993 347.63 195.466 355.03 202.574C357.08 204.769 358.86 206.63 361.045 208.704L362.875 210.862Z" fill="#E8531E"/>
<path d="M320.31 257.154C330.925 256.265 343.055 259.316 353.565 256.375C357.28 255.336 361.98 251.55 365.455 250.048C363.755 253.138 362.715 253.888 359.62 255.587C345.53 261.337 335.19 259.536 320.31 257.154Z" fill="#E12E09"/>
<path d="M365.98 205.808C366.91 207.621 367.61 208.872 368.215 210.832C368.165 213.007 368.05 213.52 366.14 214.915C364.995 213.231 364.24 212.377 362.875 210.862L361.045 208.704C361.745 208.733 362.895 208.671 363.63 208.653C365.395 207.54 364.9 207.821 365.98 205.808Z" fill="#EC753A"/>
<path d="M368.215 210.832L368.745 210.756C369.715 213.14 370.795 216.096 370.38 218.66L369.675 219.143C368.2 218.342 367.11 216.374 366.14 214.915C368.05 213.52 368.165 213.007 368.215 210.832Z" fill="#F76C34"/>
<path d="M157.165 119.884C158.801 120.341 159.733 120.655 161.318 121.293C162.636 124.84 170.675 126.828 174.145 127.153L176.507 127.918L192.775 132.21C196.78 133.233 199.645 132.639 200.874 136.688L201.242 136.715C200.152 146.022 200.692 152.815 205.261 161.265C205.305 164.072 205.738 163.504 204.251 165.233C206.91 165.583 208.309 169.446 211.228 170.363C214.919 171.524 218.739 174.759 222.016 176.589C223.267 177.288 230.975 176.411 232.35 175.826L232.7 175.132L231.26 174.503C232.685 173.218 235.785 173.419 237.82 172.545C241.295 171.053 243.97 168.747 246.685 166.4C249.135 164.284 253.965 155.402 255.51 154.886C256.03 155.797 256.445 156.577 256.905 157.519C257.96 155.128 256.37 153.182 257.375 150.751C260.575 154.556 281.39 160.059 286.745 159.724C287.85 162.024 284.85 172.138 288.84 175.115C288.14 176.654 287.735 177.848 286.565 179.064L286.59 179.929C277.315 196.407 266.085 208.053 247.425 213.905C242.635 215.407 237.235 215.383 232.965 216.454C227.565 216.73 224.515 216.141 219.332 214.989C196.546 206.979 178.103 189.419 172.072 165.589C175.595 165.841 176.65 165.914 180.222 165.377C182.5 168.085 182.901 168.477 185.899 170.325C194.686 171.523 198.461 165.671 197.595 157.443C192.571 148.977 190.266 154.477 186.655 152.545C183.915 151.078 182.487 149.324 176.99 147.529C175.861 145.084 168.34 143.451 167.241 138.861C168.055 137.306 169.907 136.556 171.486 135.144L171.733 134.919C170.892 133.505 161.547 126.505 157.165 119.884Z" fill="#E8531E"/>
<path d="M172.072 165.589C175.595 165.841 176.65 165.914 180.222 165.377C179.322 166.636 179.271 166.812 179.14 168.356L177.669 168.698C177.495 169.935 178.477 171.528 179.277 172.461C188.829 183.597 209.242 200.053 224.58 201.43C234.955 205.263 248.79 203.002 259.03 199.722C265.36 196.792 268.81 194.97 274.3 190.712C278.465 187.163 281.53 183.401 285.195 179.296C285.73 179.205 286.185 179.128 286.565 179.064L286.59 179.929C277.315 196.407 266.085 208.053 247.425 213.905C242.635 215.407 237.235 215.383 232.965 216.454C227.565 216.73 224.515 216.141 219.332 214.989C196.546 206.979 178.103 189.419 172.072 165.589Z" fill="#C51204"/>
<path d="M274.3 190.712C274.93 191.032 275.23 191.06 275.935 191.06C275.72 193.613 271.92 195.168 270.275 196.675C269.68 197.219 268.865 200.993 267.94 201.196C265.305 201.774 260.805 201.7 259.03 199.722C265.36 196.792 268.81 194.97 274.3 190.712Z" fill="#C51204"/>
<path d="M180.222 165.377C182.5 168.085 182.901 168.477 185.899 170.325L185.451 170.852C187.232 171.547 188.192 172.042 190.111 172.045C192.188 171.131 195.169 169.201 197.011 168.672C195.508 170.007 191.683 173.828 190.054 174.043C188.02 173.091 185.992 172.106 183.895 171.305C183.754 174.9 189.671 174.43 192.197 176.22C194.703 177.996 194.114 179.043 196.862 180.379C197.217 183.105 195.047 186.891 198.861 189.271C205.854 193.633 213.39 197.604 221.423 199.621C222.794 199.962 223.88 200.034 224.58 201.43C209.242 200.053 188.829 183.597 179.277 172.461C178.477 171.528 177.495 169.935 177.669 168.698L179.14 168.356C179.271 166.812 179.322 166.636 180.222 165.377Z" fill="#DC3107"/>
<path d="M293.04 158.021C293.58 155.579 292.28 153.054 294.22 151.277L296.095 151.428L297.085 152.289C297.115 153.685 297.085 154.844 297.02 156.224C297.36 154.483 297.42 152.806 298.635 151.665C300.55 151.638 304.96 152.97 306.805 153.724C327.445 162.147 353.315 179.608 366.93 197.356C364.055 197.51 364.35 194.752 361.435 193.385C359.785 193.669 358.625 194.114 357.205 194.997C359.175 197.299 362.925 201.453 364.53 203.775C364.965 204.373 365.61 205.204 365.98 205.808C364.9 207.821 365.395 207.54 363.63 208.653C362.895 208.671 361.745 208.733 361.045 208.704C358.86 206.63 357.08 204.769 355.03 202.574C347.63 195.466 334.96 186.993 325.945 182.025C319.025 177.656 311.2 171.932 302.815 175.51C301.13 179.632 300.665 179.723 298.195 183.286C297.755 183.919 297.26 189.094 296.54 190.426C289.015 204.361 276.45 210.977 265.7 220.201L266.17 220.129C265.09 221.008 264.715 221.133 263.425 221.682L262.97 222.648C264.8 223.937 267.035 225.61 268.88 226.795C270.065 227.66 286.64 243.429 286.785 243.746L286.325 244.053C283.595 242.208 281.305 239.521 279.605 238.499C278.775 239.998 280.235 238.566 280.43 240.925L279.43 241.486C277.2 240.833 276.625 240.804 274.285 240.688L272.745 238.854C264.8 229.066 255.9 226.898 246.485 236.209C243.51 241.458 242.915 244.75 241.425 250.523L240.44 250.453C232.725 244.146 226.59 239.038 221.874 229.901C220.514 227.268 219.976 223.974 217.245 221.725C216.954 221.485 217.172 221.145 217.288 220.693C223.163 222.43 234.875 222.918 240.77 221.522C232.09 220.161 223.86 223.402 215.67 218.244C215.816 218.336 212.934 218.519 212.556 218.477C211.993 217.4 211.717 217.013 210.75 216.276L210.971 215.926C213.382 215.179 216.745 215.139 219.332 214.989C224.515 216.141 227.565 216.73 232.965 216.454C237.235 215.383 242.635 215.407 247.425 213.905C266.085 208.053 277.315 196.407 286.59 179.929L286.565 179.064C287.735 177.848 288.14 176.654 288.84 175.115C290.99 170.749 292.35 162.888 292.37 157.999L293.04 158.021Z" fill="#E8531E"/>
<path d="M302.815 175.51C301.415 175.643 300.16 175.945 298.955 175.348C298.41 173.583 301.09 160.704 301.95 158.754C303.695 158.043 306.43 158.849 308.05 159.668C322.005 166.72 335.675 175.126 347.53 185.376C349.755 187.3 356 194.243 357.205 194.997C359.175 197.299 362.925 201.453 364.53 203.775C364.965 204.373 365.61 205.204 365.98 205.808C364.9 207.821 365.395 207.54 363.63 208.653C362.895 208.671 361.745 208.733 361.045 208.704C358.86 206.63 357.08 204.769 355.03 202.574C347.63 195.466 334.96 186.993 325.945 182.025C319.025 177.656 311.2 171.932 302.815 175.51Z" fill="url(#paint3_linear_37_279)"/>
<path d="M355.03 202.574C357.565 203.937 360.335 205.652 363.225 205.625C364.455 204.8 364.095 205.28 364.53 203.775C364.965 204.373 365.61 205.204 365.98 205.808C364.9 207.821 365.395 207.54 363.63 208.653C362.895 208.671 361.745 208.733 361.045 208.704C358.86 206.63 357.08 204.769 355.03 202.574Z" fill="#F5925E"/>
<path d="M293.04 158.021C293.58 155.579 292.28 153.054 294.22 151.277L296.095 151.428L297.085 152.289C297.115 153.685 297.085 154.844 297.02 156.224C297.045 171.137 294.73 176.869 287.075 189.821C283.805 194.469 279.445 200.929 275.215 204.506L271.385 208.128L266.315 211.765L264.46 212.983C258.75 215.986 247.35 221.236 240.77 221.522C232.09 220.161 223.86 223.402 215.67 218.244C215.816 218.336 212.934 218.519 212.556 218.477C211.993 217.4 211.717 217.013 210.75 216.276L210.971 215.926C213.382 215.179 216.745 215.139 219.332 214.989C224.515 216.141 227.565 216.73 232.965 216.454C237.235 215.383 242.635 215.407 247.425 213.905C266.085 208.053 277.315 196.407 286.59 179.929L286.565 179.064C287.735 177.848 288.14 176.654 288.84 175.115C290.99 170.749 292.35 162.888 292.37 157.999L293.04 158.021Z" fill="#610802"/>
<path d="M232.965 216.454C237.235 215.383 242.635 215.407 247.425 213.905C266.085 208.053 277.315 196.407 286.59 179.929C286.435 182.091 286.38 183.483 285.91 185.604C284.57 191.636 274.205 198.058 273.97 202.368C273.145 207.135 268.58 204.477 264.815 206.768C261.85 208.573 262.6 211.185 260.2 212.726C259.13 212.012 258.14 210.911 257.21 211.272C255.685 211.862 252.37 213.62 251.215 214.62L251.59 215.689C249.515 217.676 236.34 216.892 232.965 216.454Z" fill="#6F1003"/>
<path d="M293.04 158.021C293.58 155.579 292.28 153.054 294.22 151.277L296.095 151.428C296.175 153.394 296.115 158.4 295.43 160.169L294.445 160.764L293.53 160.429C293.225 159.396 293.095 159.086 293.04 158.021Z" fill="#6F1003"/>
<path d="M266.315 211.765C264.5 211.491 263.755 211.376 263.695 209.515C265.155 207.393 268.675 206.059 271.145 206.818L271.385 208.128L266.315 211.765Z" fill="#6F1003"/>
<path d="M246.485 236.209C244.325 237.303 241.625 244.448 238.72 245.668C236.14 243.346 226.9 236.194 228.375 232.807C229.2 233.388 229 233.419 229.885 233.52C229.36 231.965 226.76 231.94 225.705 230.173C224.585 228.286 222.871 225.735 222.225 223.7C223.271 223.309 234.98 226.189 237.35 226.584C244.925 227.847 255.875 219.422 262.97 222.648C264.8 223.937 267.035 225.61 268.88 226.795C270.065 227.66 286.64 243.429 286.785 243.746L286.325 244.053C283.595 242.208 281.305 239.521 279.605 238.499C278.775 239.998 280.235 238.566 280.43 240.925L279.43 241.486C277.2 240.833 276.625 240.804 274.285 240.688L272.745 238.854C264.8 229.066 255.9 226.898 246.485 236.209Z" fill="#DC3107"/>
<path d="M268.88 226.795C270.065 227.66 286.64 243.429 286.785 243.746L286.325 244.053C283.595 242.208 281.305 239.521 279.605 238.499C278.775 239.998 280.235 238.566 280.43 240.925L279.43 241.486C277.2 240.833 276.625 240.804 274.285 240.688L272.745 238.854C273.415 226.064 264.36 230.222 262.06 227.988C264.645 227.623 266.935 228.078 269.525 228.429L268.88 226.795Z" fill="#E12E09"/>
<path d="M287.075 189.821L287.48 189.715C291.655 188.605 290.285 186.874 293.31 185.938C294.345 186.654 294.02 186.284 294.32 187.89C292.965 192.905 284.535 203.853 280.565 206.685C279.27 207.824 278.1 208.916 276.645 209.846C274.04 211.92 266.075 217.243 262.925 217.707L262.82 217.071L263.215 216.713C264.275 215.751 264.855 215.429 265.09 214.057L264.46 212.983L266.315 211.765L271.385 208.128L275.215 204.506C279.445 200.929 283.805 194.469 287.075 189.821Z" fill="#F3B48A"/>
<path d="M276.645 209.846L275.59 209.377L275.355 208.49C276.13 206.208 277.56 204.38 280.11 205.229L280.565 206.685C279.27 207.824 278.1 208.916 276.645 209.846Z" fill="#FBC69F"/>
<path d="M162.744 289.535C175.174 290.179 182.367 291.255 194.029 295.267C199.571 297.75 204.989 299.734 210.099 303.203C212.273 304.68 216.072 308.97 217.032 309.638C221.033 316.141 221.041 316.947 223.353 323.776L222.363 323.297L222.768 321.971C221.873 320.903 222.422 321.178 221.115 321.03L220.246 322.188C218.847 319.815 221.312 316.162 218.746 313.858L217.639 313.986C213.951 314.605 205.911 313.38 202.935 311.13L203.213 310.891L202.953 310.193C200.803 309.828 198.358 308.723 196.297 307.892C190.736 303.612 168.451 301.629 161.546 303.322C138.811 307.295 140.781 336.402 130.832 338.401C128.04 337.222 129.324 336.736 126.811 336.763C123.773 338.072 121.029 342.369 117.628 344.441C113.004 347.257 108.389 343.851 104.301 347.347C104.276 347.368 103.278 349.856 103.136 350.215L102.883 350.852C104.598 352.333 106.117 350.696 108.313 352.491C108.251 353.851 107.434 354.712 106.423 355.653C103.827 359.344 101.668 360.25 97.095 361.238L97.7975 361.227L98.1985 361.769L98.749 361.665L98.443 361.796C97.4915 362.213 97.2465 362.255 96.525 362.957C97.822 364.348 99.029 362.576 100.431 364.203C99.724 364.965 98.872 365.043 97.804 364.943C91.6845 364.372 84.7855 365.146 78.8455 364.947C77.797 364.948 76.6015 365.629 75.695 365.665C72.8925 365.774 65.347 366.151 63.41 364.06C63.682 363.357 63.9775 362.876 63.804 362.166L62.405 362.667C61.3945 362.032 61.6145 361.872 61.065 360.842C59.8345 358.535 54.274 358.846 53.118 357.119C53.7505 356.252 56.11 355.491 57.478 354.623C56.0425 351.078 51.8405 349.872 48.329 349.402C54.163 348.541 60.1615 352.291 66.022 353.31C68.539 353.748 70.393 353.663 72.9105 353.579C75.3475 350.862 78.0205 347.03 81.575 345.817C83.9365 345.011 85.584 346.311 87.6475 347.3C100.7 353.556 98.8145 344.152 103.4 343.187C107.355 342.354 111.509 344.216 115.424 342.762C119.993 341.064 123.326 338.556 126.672 335.085C138.928 322.367 132.299 312.433 138.129 300.327C140.648 295.097 145.182 292.704 150.43 290.943C154.357 290.051 158.72 289.829 162.744 289.535Z" fill="#EC753A"/>
<path d="M161.546 303.322C157.79 303.015 154.065 302.508 150.791 304.123C149.989 304.519 148.762 304.237 147.935 303.799C150.505 301.404 164.48 302.318 168.147 301.495L168.365 300.964L167.677 300.004C165.927 299.263 164.485 299.547 162.584 299.701L162.723 299.596C161.313 299.878 157.835 300.788 156.728 300.315C156.715 298.713 156.769 298.527 157.482 297.09C159.345 295.083 168.093 294.678 170.191 296.663L170.419 296.111L169.785 295.364C167.381 294.42 162.109 294.446 159.264 294.351L159.19 294.041C163.125 293.33 168.213 293.6 172.222 294.055C174.614 294.326 179.08 296.264 181.22 295.933C184.746 296.723 186.649 297.114 190.01 298.484C193.758 299.834 202.049 302.168 204.152 305.151C203.822 308.474 198.915 307.879 196.297 307.892C190.736 303.612 168.451 301.629 161.546 303.322Z" fill="#F3B48A"/>
<path d="M97.095 361.238C94.2155 361.443 89.203 361.385 86.9325 359.314C86.9175 359.301 86.526 358.905 86.4785 358.881C85.697 358.475 76.346 363.823 74.1535 364.211C71.6015 363.271 69.3195 364.074 67.648 362.994C67.7715 362.063 68.225 361.535 68.7365 360.74C68.3045 359.859 68.288 360.155 68.311 359.287C74.3115 359.278 77.766 358.349 82.4565 354.679C87.7125 350.566 88.3905 353.843 93.27 355.262C95.7585 355.985 101.195 353.433 103.854 353.385C105.038 353.363 105.735 354.78 106.423 355.653C103.827 359.344 101.668 360.25 97.095 361.238Z" fill="#F3B48A"/>
<path d="M202.953 310.193C203.275 310.101 207.839 308.891 207.749 309.002C208.95 307.529 208.59 305.921 210.224 304.802C210.868 306.449 210.493 308.145 212.073 309.128C214.686 310.753 216.215 311.09 217.639 313.986C213.951 314.605 205.911 313.38 202.935 311.13L203.213 310.891L202.953 310.193Z" fill="#E8531E"/>
<path d="M181.22 295.933C184.106 294.84 189.45 293.224 192.083 295.496C191.882 297.212 191.367 296.384 190.717 298.037L190.01 298.484C186.649 297.114 184.746 296.723 181.22 295.933Z" fill="#DC3107"/>
<path d="M274.285 240.688C276.625 240.804 277.2 240.833 279.43 241.486L280.43 240.925C280.235 238.566 278.775 239.998 279.605 238.499C281.305 239.521 283.595 242.208 286.325 244.053L286.785 243.746C296.825 250.191 308.67 254.646 320.31 257.154C335.19 259.536 345.53 261.337 359.62 255.587C354.22 261.511 355.47 264.34 347.455 270.472C332.185 282.15 329.42 287.525 308.475 283.585C297.19 281.463 304.425 282.428 296.59 277.463C293.81 277.355 288.365 276.991 285.795 277.558L285.235 276.336C285.6 265.891 280.075 249.595 274.285 240.688Z" fill="#C51204"/>
<path d="M381.015 229.498C382.47 231.178 383.265 231.504 385.235 232.577C391.505 234.599 396.315 241.154 400.435 246.26C401.34 247.256 403.26 250.685 403.69 251.935C403.255 256.16 406.935 260.931 407.52 264.689C407.895 267.095 405.345 268.488 405.725 272.421C402.565 276.914 393.73 294.858 386.665 292.791C380.285 290.527 371.73 283.923 368.015 278.426C360.355 267.096 374.245 253.623 377.735 242.937C379.17 238.549 379.97 233.945 381.015 229.498Z" fill="url(#paint4_linear_37_279)"/>
<path d="M385.235 232.577C391.505 234.599 396.315 241.154 400.435 246.26C399.69 246.153 388.045 237.764 386.475 236.536C386.21 234.836 386.1 234.491 385.41 232.959L385.235 232.577Z" fill="#097CBB"/>
<path d="M336.005 286.833C338.1 285.515 340.895 284.677 342.92 283.164C362.565 268.51 375.925 249.178 380.95 225.156L381.015 229.498C379.97 233.945 379.17 238.549 377.735 242.937C374.245 253.623 360.355 267.096 368.015 278.426C371.73 283.923 380.285 290.527 386.665 292.791C393.73 294.858 402.565 276.914 405.725 272.421C407.38 270.459 407.355 269.225 409.925 267.314C402.985 284.673 387.355 302.18 369.93 309.101C362.85 311.912 357.17 313.368 349.68 310.424C342.975 307.788 338.39 303.651 333.365 298.664C332.765 298.067 329.29 294.648 328.9 294.409C328.535 293.792 328.18 293.093 327.84 292.455C328.695 289.802 332.945 288.575 336.005 286.833Z" fill="#035D93"/>
<path d="M285.6 297.112C286.405 296.246 287.245 288.902 287.195 287.446L287.17 286.928L287.625 286.738C288.225 288.197 288.515 289.405 288.91 290.915C290.665 289.013 288.525 283.748 292.28 281.79C293.925 281.934 294.205 282.145 295.665 282.953L296.05 284.501L296.575 285.045C299.62 287.299 298.82 300.164 299.29 304.091C300.23 311.875 300.55 320.136 301.72 327.823C302.16 330.743 293.36 334.368 293.695 342.488C291.395 344.38 288.81 347.344 286.415 349.111C281.255 352.922 260.275 368.541 254.285 365.009C253.68 363.978 253.055 362.865 253.93 361.7C260.22 353.342 269.755 344.86 276.62 336.586C290.01 320.437 283.02 314.576 285.6 297.112Z" fill="#6F1003"/>
<path d="M296.575 285.045C298.135 298.225 296.915 311.64 296.375 324.705C296.295 326.643 295.715 326.804 294.24 327.531C291.935 326.965 290.915 323.735 290.975 321.665C291.325 309.977 290.655 295.668 291.595 284.223L292.7 283.517C294.335 283.448 294.605 283.677 296.05 284.501L296.575 285.045Z" fill="#E12E09"/>
<path d="M287.965 331.52C290.02 332.6 291.07 333.453 292.915 334.885C286.41 344.665 283.435 342.861 276.335 349.539C275.285 350.17 274.995 350.419 274.065 351.231L273.265 351.175L272.91 350.469C275.755 345.551 283.76 335.487 287.965 331.52Z" fill="#C51204"/>
<path d="M256.11 237.044C257.585 236.943 258.45 236.796 259.895 237.225C275.99 241.626 278.05 271.434 277.695 285.155C277.355 287.767 277.345 289.703 275.715 291.789C272.985 292.466 272.335 289.56 270.83 287.398C270.535 286.128 268.685 284.615 267.64 283.595C260.59 275.961 249.605 271.994 239.475 275.143C238.735 273.201 241.105 270.778 242.185 269.076C246.005 263.07 248.44 257.117 248.925 249.91C248.865 246.193 249.565 244.113 250.635 240.658C252.865 238.873 253.58 238.309 256.11 237.044Z" fill="#E12E09"/>
<path d="M256.11 237.044C257.585 236.943 258.45 236.796 259.895 237.225C264.045 241.252 266.59 243.461 268.93 248.975C272.92 260.346 271.8 267.54 269.82 279.033C266.93 278.128 261.01 274.693 256.89 273.478C253.745 272.551 249.99 272.163 247.75 271.333C250.71 271.072 252.78 267.328 254.09 264.834C257.865 257.66 259.33 248.054 257.875 240.09C257.735 239.346 257.535 238.773 257.43 237.947L257.395 237.666L256.11 237.044Z" fill="#DC3107"/>
<path d="M268.93 248.975C274.715 251.83 276.625 276.152 275.915 281.973C275.69 283.824 274.91 285.826 274.205 287.576C272.4 287.697 267.795 282.393 266.315 280.862C268.59 280.267 269.86 281.967 269.82 279.033C271.8 267.54 272.92 260.346 268.93 248.975Z" fill="#C51204"/>
<path d="M251.335 240.681C252.84 240.619 253.235 240.584 254.69 240.908C259.82 244.96 255.525 256.191 253.82 261.306C252.4 262.62 251.955 262.875 250.485 261.844C249.225 259.028 251.21 245.185 251.335 240.681Z" fill="#F3B48A"/>
<path d="M247.52 280.144C249.375 280.43 251.57 280.711 253.38 281.079L253.93 280.971C257.16 282.515 258.475 283.408 261.395 285.425L261.545 285.812C261.895 300.065 251.305 316.753 238.155 322.183L237.82 321.807C235.29 318.913 235.785 316.517 231.62 316.393C226.88 309.812 224.995 307.823 218.876 302.456L220.656 302.052L220.537 300.458C221.427 299.077 227.915 296.319 229.905 295.359C231.69 294.422 232.84 293.751 234.53 292.644C236.9 291.016 239.59 288.775 241.88 286.963C243.885 284.89 246.03 281.525 247.52 280.144Z" fill="#E12E09"/>
<path d="M247.52 280.144C249.375 280.43 251.57 280.711 253.38 281.079C248.545 281.873 250.35 281.469 249.755 285.874C249.285 289.345 243.59 294.191 240.965 296.079C237.44 296.905 235.305 299.19 231.65 298.215C229.99 296.828 230.475 297.566 229.905 295.359C231.69 294.422 232.84 293.751 234.53 292.644C236.9 291.016 239.59 288.775 241.88 286.963C243.885 284.89 246.03 281.525 247.52 280.144Z" fill="#F59D6D"/>
<path d="M241.88 286.963C243.725 287.971 243.32 287.432 244.065 288.965C243.81 292.535 239.34 295.007 236.04 294.853C234.695 293.981 235.135 294.478 234.53 292.644C236.9 291.016 239.59 288.775 241.88 286.963Z" fill="#F3B48A"/>
<path d="M220.656 302.052L220.537 300.458C221.427 299.077 227.915 296.319 229.905 295.359C230.475 297.566 229.99 296.828 231.65 298.215C235.305 299.19 237.44 296.905 240.965 296.079C235.97 300.442 227.23 303.921 220.656 302.052Z" fill="#F76C34"/>
<path d="M239.265 261.932C241.125 260.613 240.775 260.443 240.86 258.061L241.595 257.634C243.985 258.89 244.19 261.797 243.68 264.202C241.51 266.318 241.44 264.003 240.535 266.454L241.205 268.153C239.72 270.907 237.65 272.279 238.3 275.28C239.2 275.44 238.83 275.56 239.475 275.143C249.605 271.994 260.59 275.961 267.64 283.595C264.41 283.447 261.475 282.186 260.07 282.451C260.04 283.796 260.565 284.123 261.395 285.425C258.475 283.408 257.16 282.515 253.93 280.971L253.38 281.079C251.57 280.711 249.375 280.43 247.52 280.144C246.03 281.525 243.885 284.89 241.88 286.963C239.59 288.775 236.9 291.016 234.53 292.644C232.84 293.751 231.69 294.422 229.905 295.359C227.915 296.319 221.427 299.077 220.537 300.458L220.656 302.052L218.876 302.456L216.616 300.57C214.876 301.479 215.438 300.942 214.436 302.566C214.23 307.475 221.782 307.21 223.332 312.407C224.14 315.112 226.245 316.05 226.31 320.015C224.96 317.398 219.784 310.709 217.032 309.638C216.072 308.97 212.273 304.68 210.099 303.203C204.989 299.734 199.571 297.75 194.029 295.267C182.367 291.255 175.174 290.179 162.744 289.535C158.72 289.829 154.357 290.051 150.43 290.943L150.293 290.268C148.625 290.828 144.363 291.42 142.961 290.349L143.341 289.916L145.629 289.886C148.991 286.331 174.68 286.036 180.514 285.919C191.159 287.95 199.791 292.021 209.746 295.788C215.62 292.831 225.64 288.928 230.125 284.435C232.76 281.796 231.23 269.048 239.265 261.932Z" fill="#6F1003"/>
<path d="M247.205 279.462L247.52 280.144C246.03 281.525 243.885 284.89 241.88 286.963C239.59 288.775 236.9 291.016 234.53 292.644C232.84 293.751 231.69 294.422 229.905 295.359C227.915 296.319 221.427 299.077 220.537 300.458L220.656 302.052L218.876 302.456L216.616 300.57L215.801 299.681L216.111 298.811C221.888 295.578 228.145 293.532 234.01 289.784C238.395 286.983 243.005 280.099 247.205 279.462Z" fill="#E8531E"/>
<path d="M162.744 289.535C166.343 289.144 172.707 289.409 175.285 288.825L174.802 288.438C172.355 288.736 171.024 289.137 168.94 287.917L168.843 287.601C174.879 286.721 191.393 288.969 194.029 295.267C182.367 291.255 175.174 290.179 162.744 289.535Z" fill="#841B0B"/>
<path d="M247.205 279.462C243.935 279.09 242.93 280.691 240.7 280.019L239.985 278.667C241.745 274.291 253.1 274.974 255.8 277.756L255.89 278.695L253.93 280.971L253.38 281.079C251.57 280.711 249.375 280.43 247.52 280.144L247.205 279.462Z" fill="#4A0502"/>
<path d="M261.545 285.812C261.98 286.364 262.975 287.768 263.49 288.058L264.2 289.304C264.86 292.525 266.78 293.216 268.335 296.544C269.48 298.997 269.985 300.493 270.805 303.084C270.07 305.006 269.325 306.884 268.8 308.879C265.47 321.538 256.485 338.632 245.01 345.492C243.895 345.934 242.77 346.358 241.64 346.762C240.16 346.325 240.655 346.703 239.825 345.292C240.005 343.263 240.27 338.307 239.19 336.589C238.96 328.342 234.69 323.81 231.62 316.393C235.785 316.517 235.29 318.913 237.82 321.807L238.155 322.183C251.305 316.753 261.895 300.065 261.545 285.812Z" fill="#C51204"/>
<path d="M255.545 133.433C266.795 136.748 283.61 142.287 292.485 149.991C292.505 152.661 292.47 155.331 292.37 157.999C292.35 162.888 290.99 170.749 288.84 175.115C284.85 172.138 287.85 162.024 286.745 159.724C281.39 160.059 260.575 154.556 257.375 150.751C256.37 153.182 257.96 155.128 256.905 157.519C256.445 156.577 256.03 155.797 255.51 154.886C253.965 155.402 249.135 164.284 246.685 166.4C243.97 168.747 241.295 171.053 237.82 172.545C235.785 173.419 232.685 173.218 231.26 174.503L232.7 175.132L232.35 175.826C230.975 176.411 223.267 177.288 222.016 176.589C218.739 174.759 214.919 171.524 211.228 170.363C208.309 169.446 206.91 165.583 204.251 165.233C205.738 163.504 205.305 164.072 205.261 161.265C208.37 166.497 214.844 171.506 220.629 173.136C233.03 176.631 244.8 168.09 250.825 157.77C253.38 153.396 254.405 149.473 255.9 144.729L256.115 140.432C255.925 138.152 255.67 135.699 255.545 133.433Z" fill="#EC753A"/>
<path d="M256.115 140.432C259.815 138.603 265.325 141.861 269.88 142.692L270.215 143.004C272.535 145.133 277.84 148.046 278.455 149.172C277.745 151.917 275.615 151.97 273.675 153.704C268.165 151.401 257.52 150.938 255.9 144.729L256.115 140.432Z" fill="#F59D6D"/>
<path d="M269.88 142.692C273.335 142.754 286.38 151.041 286.67 156.125C284.845 159.483 276.72 154.884 273.675 153.704C275.615 151.97 277.745 151.917 278.455 149.172C277.84 148.046 272.535 145.133 270.215 143.004L269.88 142.692Z" fill="#F5925E"/>
<path d="M258.21 136.458C261.14 136.415 265.385 136.45 265.325 140.137C263.5 139.79 259.65 138.45 258.005 137.599L258.21 136.458Z" fill="#DC3107"/>
<path d="M422.025 324.098C425.26 324.005 425.055 321.503 427.845 321.811C430.765 325.218 430.24 340.823 430.185 345.204C430.175 346.396 432.395 345.449 432.705 347.389C428.745 354.222 424.885 353.066 417.735 353.656C419.24 354.918 420.545 353.583 422.515 354.954C421.73 357.781 409.635 359.25 406.86 359.404C406.315 356.723 402.46 355.765 402.82 350.525C403.01 347.767 401.535 341.672 400.995 338.605C401.495 337.838 401.775 337.553 401.85 336.633L399.94 336.013C403.065 334.726 407.3 333.133 410.08 331.418C412.46 330.534 419.63 325.659 422.025 324.098Z" fill="#F2B80D"/>
<path d="M380.885 212.495C399.9 220.548 420.73 242.974 411.055 264.968C410.7 265.762 410.325 266.544 409.925 267.314C407.355 269.225 407.38 270.459 405.725 272.421C405.345 268.488 407.895 267.095 407.52 264.689C406.935 260.931 403.255 256.16 403.69 251.935C403.26 250.685 401.34 247.256 400.435 246.26C396.315 241.154 391.505 234.599 385.235 232.577C383.265 231.504 382.47 231.178 381.015 229.498L380.95 225.156L381.175 221.504L380.96 219.853L380.885 212.495Z" fill="#097CBB"/>
<path d="M380.96 219.853L382 219.535L382.515 220.167C385.61 221.49 389.09 222.75 391.455 225.171C393.75 227.357 397.62 230.859 399.44 233.215C402.74 236.237 411.46 251.889 407.94 256.267C407.09 255.685 407.245 255.524 406.74 254.396L405.74 254.961C404.755 254.37 404.24 253.008 403.69 251.935C403.26 250.685 401.34 247.256 400.435 246.26C396.315 241.154 391.505 234.599 385.235 232.577C383.265 231.504 382.47 231.178 381.015 229.498L380.95 225.156L381.175 221.504L380.96 219.853Z" fill="#7DD1EE"/>
<path d="M380.96 219.853L382 219.535L382.515 220.167C385.61 221.49 389.09 222.75 391.455 225.171C393.75 227.357 397.62 230.859 399.44 233.215L398.965 234.06C399.88 235.293 400.26 235.833 400.995 237.186C400.64 237.921 400.69 238.085 400 238.569C400.665 240.158 400.905 242.608 401.23 244.368C399.415 243.81 397.69 240.812 396.655 239.358C395.13 237.21 396.225 237.247 395.715 235.459C394.43 234.317 393.785 234.26 392.11 233.928C391.19 233.746 389.86 232.286 389 231.533C385.245 229.781 385.55 229.492 383.445 225.743C381.98 223.146 381.885 224.99 381.175 221.504L380.96 219.853Z" fill="#76D0E3"/>
<path d="M390.045 226.21C387.785 223.857 383.24 223.69 382.065 221.225L382.515 220.167C385.61 221.49 389.09 222.75 391.455 225.171L390.045 226.21Z" fill="#7DD1EE"/>
<path d="M399.615 335.967L399.94 336.013L401.85 336.633C401.775 337.553 401.495 337.838 400.995 338.605C401.535 341.672 403.01 347.767 402.82 350.525C402.46 355.765 406.315 356.723 406.86 359.404C401.635 360.076 395.835 359.894 390.53 359.857C390.425 360.534 390.32 360.323 390.565 360.759L386.08 359.988C376.465 356.14 377.275 348.147 375.86 338.855C380.52 339.061 384.35 339.225 388.995 339.019C391.545 338.111 396.69 336.851 399.615 335.967Z" fill="#D19002"/>
<path d="M375.86 338.855C380.52 339.061 384.35 339.225 388.995 339.019L391 340.352C389.6 341.318 383.06 340.551 380.48 340.639C381.28 346.551 379.81 354.768 383.57 358.009C384.445 358.76 387.325 359.34 388.64 359.738L386.08 359.988C376.465 356.14 377.275 348.147 375.86 338.855Z" fill="#F2B80D"/>
<path d="M283.085 270.868C284.415 273.939 283.115 273.896 285.235 276.336L285.795 277.558C289.52 280.004 294.445 277.785 297.705 279.485C301.385 281.402 298.18 283.408 303.45 286.418C303.65 287.287 303.785 287.624 303.685 288.531C303.85 292.05 307.155 301.451 307.775 305.933C308.695 312.542 308.945 319.02 309.815 325.559C308.31 327.114 307.67 326.138 305.64 327.306C305.185 326.428 305.155 326.066 304.955 325.126L304.015 325.029C303.045 326.575 301.715 332.476 301.81 333.786C298.875 336.679 296.225 339.968 293.695 342.488C293.36 334.368 302.16 330.743 301.72 327.823C300.55 320.136 300.23 311.875 299.29 304.091C298.82 300.164 299.62 287.299 296.575 285.045L296.05 284.501L295.665 282.953C294.205 282.145 293.925 281.934 292.28 281.79C288.525 283.748 290.665 289.013 288.91 290.915C288.515 289.405 288.225 288.197 287.625 286.738L287.17 286.928L287.195 287.446C287.245 288.902 286.405 296.246 285.6 297.112L285.52 296.141L281.65 296.44C283 293.872 283.27 293.795 283.885 290.756L283.3 290.633C283.205 288.329 282.835 272.317 283.085 270.868Z" fill="#610802"/>
<path d="M283.885 290.756C284.375 289.216 284.285 288.384 285.38 287.804C286.17 289.78 285.7 293.93 285.52 296.141L281.65 296.44C283 293.872 283.27 293.795 283.885 290.756Z" fill="#4A0502"/>
<path d="M205.28 89.7232C210.733 91.1537 212.399 92.0412 215.273 96.8282C214.857 98.9257 215.263 98.7057 213.915 99.6197C210.399 99.4917 205.451 96.4107 202.039 96.7902C199.451 97.0777 193.036 100.832 190.577 100.986L190.036 99.8652C194.094 94.3697 198.691 91.2227 205.28 89.7232Z" fill="#6F1003"/>
<path d="M319.83 339.632C319.94 325.868 319.515 316.081 315.715 302.742C314.635 298.946 310.21 289.021 310.14 286.37C316.03 286.134 323.075 287.48 329.115 287.117C331.68 286.962 333.35 286.738 336.005 286.833C332.945 288.575 328.695 289.802 327.84 292.455C328.18 293.093 328.535 293.792 328.9 294.409L328.42 295.718L327.505 296.121C322.53 295.354 322.98 289.706 316.625 291.577L317.715 292.417C320.35 298.65 325.805 311.657 325.315 318.48L324.655 318.739L324.925 320.145C325.045 321.027 324.84 329.54 324.025 328.265C327.26 333.315 328.925 337.633 322.83 341.593C323.15 339.579 323.45 337.841 322.235 336.139C320.735 337.031 320.73 337.829 319.83 339.632Z" fill="#610802"/>
<path d="M316.625 291.577L317.715 292.417C320.35 298.65 325.805 311.657 325.315 318.48L324.655 318.739C323.79 315.068 316.59 292.37 316.625 291.577Z" fill="#E8531E"/>
<path d="M261.395 285.425C260.565 284.123 260.04 283.796 260.07 282.451C261.475 282.186 264.41 283.447 267.64 283.595C268.685 284.615 270.535 286.128 270.83 287.398C272.335 289.56 272.985 292.466 275.715 291.789C277.345 289.703 277.355 287.767 277.695 285.155C277.92 286.796 277.93 292.721 278.69 293.495C282.44 297.333 276.81 300.44 274.89 304.226C270.435 313.031 268.27 328.647 259.655 334.073C252.99 338.272 255.06 346.179 245.01 345.492C256.485 338.632 265.47 321.538 268.8 308.879C269.325 306.884 270.07 305.006 270.805 303.084C269.985 300.493 269.48 298.997 268.335 296.544C266.78 293.216 264.86 292.525 264.2 289.304L263.49 288.058C262.975 287.768 261.98 286.364 261.545 285.812L261.395 285.425Z" fill="#6F1003"/>
<path d="M261.395 285.425C260.565 284.123 260.04 283.796 260.07 282.451C261.475 282.186 264.41 283.447 267.64 283.595C268.685 284.615 270.535 286.128 270.83 287.398L271.15 290.622C271.74 292.343 272.23 293.876 271.43 295.544L270.52 295.664C267.995 294.047 266.5 291.545 264.2 289.304L263.49 288.058C262.975 287.768 261.98 286.364 261.545 285.812L261.395 285.425Z" fill="#610802"/>
<path d="M422.025 324.098C425.465 321.104 428.785 318.242 431.34 314.438C432.05 313.373 432.675 312.415 433.9 311.89C437.155 313.113 436.09 323.961 437.37 326.847C437.335 332.992 437.43 337.343 436.32 343.466C434.475 349.248 433.31 352.243 427.4 355.26C426.885 355.52 426.37 355.771 425.845 356.013C422.825 357.082 420.67 357.803 417.545 358.598C409.435 360.685 398.885 362.439 390.565 360.759C390.32 360.323 390.425 360.534 390.53 359.857C395.835 359.894 401.635 360.076 406.86 359.404C409.635 359.25 421.73 357.781 422.515 354.954C420.545 353.583 419.24 354.918 417.735 353.656C424.885 353.066 428.745 354.222 432.705 347.389C432.395 345.449 430.175 346.396 430.185 345.204C430.24 340.823 430.765 325.218 427.845 321.811C425.055 321.503 425.26 324.005 422.025 324.098Z" fill="#F3CE36"/>
<path d="M429.46 324.265C429.6 322.945 429.695 322.164 429.625 320.818L430.04 320.539L431.785 320.88C432.66 319.926 432.395 318.552 432.475 316.938C433.385 318.415 433.865 322.492 433.96 324.321C434.445 326.316 434.325 332.7 432.97 334.409C431.5 333.486 429.885 326.355 429.46 324.265Z" fill="#DEEE4F"/>
<path d="M303.685 288.531C305.265 288.602 306.965 288.717 308.535 288.695C312.165 294.907 321.9 324.188 315.43 328.916C314.155 329.241 311.905 329.095 310.77 328.53C310.575 327.841 310.13 326.084 309.815 325.559C308.945 319.02 308.695 312.542 307.775 305.933C307.155 301.451 303.85 292.05 303.685 288.531Z" fill="#C51204"/>
<path d="M317.715 292.417L319.345 291.743C324.73 294.064 334.35 324.124 335.255 329.955C333.975 332.019 330.945 333.164 329.05 331.591C326.12 329.157 326.35 323.6 324.925 320.145L324.655 318.739L325.315 318.48C325.805 311.657 320.35 298.65 317.715 292.417Z" fill="#C51204"/>
<path d="M280.77 298.563C281.08 295.025 279.19 291.715 279.08 287.357C278.88 279.32 280.145 273.264 278.78 265.2C278.42 260.777 275.23 256.251 274.675 252.297C273.945 247.103 274.45 246.723 270.865 242.772L271.525 241.977L272.325 242.006C275.605 244.872 275.165 247.483 276.53 249.647C279.545 254.431 283.375 265.423 283.085 270.868C282.835 272.317 283.205 288.329 283.3 290.633L283.885 290.756C283.27 293.795 283 293.872 281.65 296.44L280.77 298.563Z" fill="#6F1003"/>
<path d="M174.145 127.153L173.789 126.909C172.527 126.057 172.215 125.824 170.639 125.953L169.849 125.09C172.097 125.19 173.384 125.836 176.269 125.909C185.773 126.153 194.72 126.075 204.234 127.016C203.2 130.237 202.202 133.47 201.242 136.715L200.874 136.688C199.645 132.639 196.78 133.233 192.775 132.21L176.507 127.918L174.145 127.153Z" fill="#F5925E"/>
<path d="M161.318 121.293C172.185 124.514 194.591 123.283 206.803 123.337L204.234 127.016C194.72 126.075 185.773 126.153 176.269 125.909C173.384 125.836 172.097 125.19 169.849 125.09L170.639 125.953C172.215 125.824 172.527 126.057 173.789 126.909L174.145 127.153C170.675 126.828 162.636 124.84 161.318 121.293Z" fill="#EC753A"/>
<path d="M357.205 194.997C358.625 194.114 359.785 193.669 361.435 193.385C364.35 194.752 364.055 197.51 366.93 197.356C370.32 201.138 372.35 204.707 373.79 209.612C370.195 210.064 372.73 206.974 368.745 210.756L368.215 210.832C367.61 208.872 366.91 207.621 365.98 205.808C365.61 205.204 364.965 204.373 364.53 203.775C362.925 201.453 359.175 197.299 357.205 194.997Z" fill="#E8531E"/>
<path d="M437.37 326.847C437.66 325.135 437.545 323.519 437.435 321.797L438.13 321.276C440.625 322.411 439.89 346.32 439.485 349.985L439.235 350.774C438.885 349.423 437.25 344.427 436.32 343.466C437.43 337.343 437.335 332.992 437.37 326.847Z" fill="#610802"/>
<path d="M248.925 249.91L247.935 250.859L246.765 250.774C243.455 247.38 244.82 235.579 251.795 235.325L252.455 236.033C252.34 237.788 251.47 239.102 250.635 240.658C249.565 244.113 248.865 246.193 248.925 249.91Z" fill="#4A0502"/>
<path d="M176.99 147.529C172.048 146.465 161.138 139.709 156.516 136.894C156.556 136.862 168.926 135.667 171.733 134.919L171.486 135.144C169.907 136.556 168.055 137.306 167.241 138.861C168.34 143.451 175.861 145.084 176.99 147.529Z" fill="#E12E09"/>
<path d="M425.845 356.013C428.38 357.538 430.625 355.962 432.955 357.09L433.08 357.778C431.24 359.784 420.59 361.091 417.975 360.442C417.195 359.284 417.3 359.886 417.545 358.598C420.67 357.803 422.825 357.082 425.845 356.013Z" fill="#6F1003"/>
<path d="M59.4185 310.203C53.2965 310.07 34.139 314.311 31.8775 313.054C35.9165 307.572 46.9275 297.641 53.303 294.835C57.5425 292.968 70.533 288.655 74.919 287.806C95.3445 283.855 115.639 286.412 135.206 293.222C134.493 294.736 133.791 296.476 133.125 298.031C132.241 302.249 130.977 307.587 130.513 311.769C130.647 318.202 126.96 326.082 122.75 330.633C115.547 327.393 111.973 324.262 106.177 321.225C94.6385 315.18 72.3445 310.126 59.4185 310.203Z" fill="#E12E09"/>
<path d="M59.4185 310.203C53.2965 310.07 34.139 314.311 31.8775 313.054C35.9165 307.572 46.9275 297.641 53.303 294.835C57.5425 292.968 70.533 288.655 74.919 287.806C95.3445 283.855 115.639 286.412 135.206 293.222C134.493 294.736 133.791 296.476 133.125 298.031C127.308 302.272 81.4625 292.694 71.9965 297.933L72.38 297.773C68.2015 298.658 54.866 302.739 52.008 301.954C50.826 301.63 49.6915 301.059 48.626 301.698C46.5765 302.928 44.8475 304.635 42.8595 305.97L43.192 306.552C47.307 307.396 71.4015 303.445 74.8585 305.207C72.302 305.316 66.5765 305.358 64.47 306.509L64.8245 306.229L65.2605 307.734C66.1595 307.867 74.9355 307.999 75.303 307.844C70.438 312.485 64.175 307.936 59.4185 310.203Z" fill="#E8531E"/>
<path d="M73.5605 291.758L73.704 291.787C73.1715 292.52 73.1085 292.47 73.1 293.358C78.2745 295.229 77.7395 294.968 83.1905 295.015C82.2075 295.397 74.685 296.122 73.0235 296.391C68.2575 297.163 65.197 297.988 60.6205 299.515C58.3945 300.52 53.9855 301.935 51.9285 300.389L52.159 299.649C55.6995 297.455 69.3965 292.663 73.5605 291.758Z" fill="#F76C34"/>
<path d="M59.4185 310.203C64.175 307.936 70.438 312.485 75.303 307.844C74.9355 307.999 66.1595 307.867 65.2605 307.734L64.8245 306.229L64.47 306.509C66.5765 305.358 72.302 305.316 74.8585 305.207C89.4045 306.646 106.005 311.616 120.144 316.221C121.825 316.768 124.907 321.602 127.702 319.939C129.225 318.979 130.11 313.725 130.513 311.769C130.647 318.202 126.96 326.082 122.75 330.633C115.547 327.393 111.973 324.262 106.177 321.225C94.6385 315.18 72.3445 310.126 59.4185 310.203Z" fill="#C51204"/>
<path d="M418.355 259.278C427.43 268.519 438.5 292.032 430.855 304.513C429.28 308.847 426.585 312.688 423.045 315.644C418.635 319.891 414.56 321.48 410.96 324.512C407.16 327.275 401.81 329.114 397.385 330.769L396.185 331.207C378.56 335.84 370.1 335.766 360.235 319.019C375.08 313.648 382.965 310.66 394.435 299.107C402.245 292.75 406.13 284.359 411.795 276.764C413.14 274.116 414.11 271.834 415.255 269.11C416.44 265.771 417.36 262.675 418.355 259.278Z" fill="#5ABF04"/>
<path d="M394.435 299.107C392.365 310.413 396.035 315.208 403.185 323.665C406.065 325.64 407.84 324.055 410.96 324.512C407.16 327.275 401.81 329.114 397.385 330.769L396.185 331.207C378.56 335.84 370.1 335.766 360.235 319.019C375.08 313.648 382.965 310.66 394.435 299.107Z" fill="#487A03"/>
<path d="M418.355 259.278C427.43 268.519 438.5 292.032 430.855 304.513C430.7 301.41 433.255 297.113 432.835 293.178C432.65 291.394 432.075 287.047 430.78 285.799C429.355 289.615 431.895 301.094 428.19 304.215C427.425 303.867 426.935 303.561 426.815 302.622C425.89 295.426 423.895 290.6 421.09 283.99C419.3 280.719 415.68 276.572 415.355 273.835L414.715 273.785C413.76 275.104 413.24 275.907 411.795 276.764C413.14 274.116 414.11 271.834 415.255 269.11C416.44 265.771 417.36 262.675 418.355 259.278Z" fill="#A1E52E"/>
<path d="M415.255 269.11L417.81 267.711C420.75 269.39 422.655 272.953 423.815 276.03C425.22 280.906 423.38 281.013 421.09 283.99C419.3 280.719 415.68 276.572 415.355 273.835L414.715 273.785C413.76 275.104 413.24 275.907 411.795 276.764C413.14 274.116 414.11 271.834 415.255 269.11Z" fill="#DEEE4F"/>
<path d="M229.885 113.847C231.62 114.299 233.365 114.739 235.075 115.26C249.055 119.507 253.515 134.631 250.335 147.371C248.855 151.764 247.48 154.871 244.24 158.428C239.38 166.321 227.56 170.753 218.953 166.595C206.932 161.804 202.972 145.812 207.121 134.407L207.332 133.425C209.929 126.582 211.978 123.72 217.514 119.109C217.983 118.642 219.657 117.618 220.302 117.197C223.955 115.295 226.275 115.31 229.885 113.847Z" fill="#FCFCF5"/>
<path d="M207.121 134.407C207.096 141.032 207.09 144.642 210.496 150.593C211.278 151.96 212.733 153.687 213.181 154.936C218.269 159.887 222.168 161.489 229.305 161.994C230.4 162.08 234.155 161.06 235.435 160.752C237.575 159.778 240.69 156.948 242.55 157.005L243.325 158.257L244.24 158.428C239.38 166.321 227.56 170.753 218.953 166.595C206.932 161.804 202.972 145.812 207.121 134.407Z" fill="#D6D2C5"/>
<path d="M235.435 160.752C237.575 159.778 240.69 156.948 242.55 157.005L243.325 158.257L244.24 158.428C239.38 166.321 227.56 170.753 218.953 166.595C220.241 166.221 227.51 166.847 229.53 166.808C233.845 166.725 235.76 164.026 238.645 161.169L235.435 160.752Z" fill="#E3DFD2"/>
<path d="M213.181 154.936C218.269 159.887 222.168 161.489 229.305 161.994C227.24 162.816 215.438 163.461 214.846 161.516C213.963 158.614 214.677 159.333 211.493 157.356C211.634 155.96 211.932 156.102 213.181 154.936Z" fill="#E3DFD2"/>
<path d="M227.49 134.254C230.895 132.587 236.155 131.36 238.635 135.232C238.37 136.615 236.67 137.358 235.395 137.439C231.7 143.35 237.3 149.747 244.53 143.564C244.085 151.703 241.06 159.663 230.7 158.509C226.61 158.054 223.855 154.72 221.646 151.455C220.482 142.816 220.42 139.793 227.49 134.254Z" fill="#010100"/>
<path d="M225.48 138.216L226.255 138.878C227.21 143.13 227 147.428 225.215 151.451C222.674 148.978 222.999 140.85 225.48 138.216Z" fill="#4A0502"/>
<path d="M404.315 395.094C405.915 393.773 405.315 393.908 406.985 393.717C408.01 394.728 407.695 394.298 407.965 395.952L408.46 395.885C408.34 397.705 408.21 398.86 408.465 400.677C407.34 407.13 405.805 412.957 404.68 419.163C403.32 421.551 403.305 424.543 401.88 426.809C400.325 428.286 399.645 429.444 397.48 428.828C396.45 427.294 396.71 425.506 396.735 423.608L395.745 426.87C394.065 432.734 391.75 435.507 390.255 439.797L390.33 440.154C385.745 446.504 383.105 452.889 374.92 454.189C374.24 454.304 373.55 454.349 372.86 454.319C364.345 454.789 359.48 450.989 356.385 443.319C354.705 437.682 356.755 434.761 360.53 430.569C372.125 419.593 383.58 407.527 393.565 395.085C394.17 394.332 398.54 395.536 399.475 395.756C401.275 395.596 402.545 395.508 404.315 395.094Z" fill="url(#paint5_linear_37_279)"/>
<path d="M400.11 404.09C399.47 414.748 394.77 420.509 394.34 428.115L394.86 426.84L395.745 426.87C394.065 432.734 391.75 435.507 390.255 439.797L390.33 440.154C385.745 446.504 383.105 452.889 374.92 454.189C374.24 454.304 373.55 454.349 372.86 454.319C374.21 454.059 375.085 454.074 375.96 453.074C376.2 451.674 376.62 451.349 377.66 450.424C375.065 451.044 373.515 451.719 371.23 450.519C371.99 449.049 375.52 447.514 377.16 445.919C377.425 442.449 383.375 437.812 385.115 434.52C386.575 431.758 387.64 429.069 388.82 426.193C389.03 426.946 389.255 427.695 389.5 428.439C392.605 426.955 398.69 408.466 400.11 404.09Z" fill="#E8531E"/>
<path d="M384.22 439.394C386.045 439.783 386.385 439.487 387.345 441.324C384.61 445.769 382.315 448.179 377.66 450.424C375.065 451.044 373.515 451.719 371.23 450.519C371.99 449.049 375.52 447.514 377.16 445.919C380.29 443.754 381.745 442.149 384.22 439.394Z" fill="#F59D6D"/>
<path d="M384.22 439.394C386.66 436.061 389.13 429.72 391.68 428.604L392.48 429.182C392.45 432.073 389.065 439.25 387.345 441.324C386.385 439.487 386.045 439.783 384.22 439.394Z" fill="#EC753A"/>
<path d="M404.315 395.094C405.915 393.773 405.315 393.908 406.985 393.717C408.01 394.728 407.695 394.298 407.965 395.952L408.46 395.885C408.34 397.705 408.21 398.86 408.465 400.677C407.34 407.13 405.805 412.957 404.68 419.163C403.32 421.551 403.305 424.543 401.88 426.809C400.325 428.286 399.645 429.444 397.48 428.828C396.45 427.294 396.71 425.506 396.735 423.608C398.595 418.894 403.43 401.641 402.855 397.089C401.545 395.875 401.495 396.187 399.475 395.756C401.275 395.596 402.545 395.508 404.315 395.094Z" fill="#6F1003"/>
<path d="M404.315 395.094C405.915 393.773 405.315 393.908 406.985 393.717C408.01 394.728 407.695 394.298 407.965 395.952C407.475 396.99 407.42 397.031 406.6 397.854C405.295 397.464 405.195 396.593 404.315 395.094Z" fill="#4A0502"/>
<path d="M360.53 430.569C361.12 431.918 361.5 432.468 361.39 433.937C356.555 442.699 358.62 439.389 362.185 447.564L361.185 447.604C359.5 445.914 359.02 444.129 357.365 443.254L356.385 443.319C354.705 437.682 356.755 434.761 360.53 430.569Z" fill="#EC753A"/>
<path d="M416.675 365.303C423.455 363.835 424.72 362.834 430.735 360.097C433.725 365.082 426.59 380.785 422.43 384.819C417.835 386.959 414.865 388.25 409.845 389.099C404.44 390.059 397.38 387.992 392.185 386.449C386.32 384.706 379.38 376.068 381.83 369.779C383.435 369.957 384.725 370.147 386.35 370.07C391.11 364.164 393.255 372.549 401.685 369.99L402.055 369.04C404.72 367.412 412.455 366.567 416.675 365.303Z" fill="#DC3107"/>
<path d="M409.845 389.099C404.44 390.059 397.38 387.992 392.185 386.449C386.32 384.706 379.38 376.068 381.83 369.779C383.435 369.957 384.725 370.147 386.35 370.07C391.11 364.164 393.255 372.549 401.685 369.99L401.545 370.423C399.65 376.224 391.41 383.178 402.595 386.232C405.495 387.023 408.085 387.332 411.055 387.702C410.08 388.319 409.9 388.357 408.79 388.711L409.845 389.099Z" fill="#C51204"/>
<path d="M416.675 365.303C423.455 363.835 424.72 362.834 430.735 360.097C433.725 365.082 426.59 380.785 422.43 384.819C422.75 382.082 424.5 381.614 424.465 379.471L423.62 378.93C421.76 379.931 423.63 380.072 421.71 382.258L420.66 382.056C417.125 377.817 420.85 370.703 422.645 366.424C421.185 364.004 419.195 366.225 416.675 365.303Z" fill="#E8531E"/>
<path d="M68.7585 68.3982C70.663 67.5052 70.067 66.7287 71.679 64.5352C72.762 65.8672 72.016 67.0992 71.8015 68.6787L72.5295 67.4167L73.7265 68.5547L74.848 68.1382C75.216 68.7812 75.408 69.0292 75.601 69.7487C71.5665 83.3957 70.495 91.3027 76.154 105.069C79.131 107.792 80.413 113.126 84.8865 116.855C87.835 119.642 91.034 122.105 94.2045 124.619C96.7285 126.621 100.75 128.425 102.721 130.743L102.202 131.052C93.2535 127.189 90.643 123.12 84.6055 120.13C87.46 124.99 107.26 136.579 112.839 138.447C120.304 140.946 126.812 143.477 134.121 147.331L134.144 148.116C129.458 150.438 89.9145 131.278 84.3935 126.471C81.644 124.077 78.2915 118.139 77.423 117.569C65.8975 109.993 62.4875 89.3022 66.039 76.7062C66.9005 73.3862 67.5265 71.5757 68.7585 68.3982Z" fill="#C51204"/>
<path d="M68.7585 68.3982C70.663 67.5052 70.067 66.7287 71.679 64.5352C72.762 65.8672 72.016 67.0992 71.8015 68.6787L72.5295 67.4167L73.7265 68.5547L74.848 68.1382C75.216 68.7812 75.408 69.0292 75.601 69.7487C71.5665 83.3957 70.495 91.3027 76.154 105.069C76.5755 106.368 77.044 108.529 77.3925 109.92L76.8725 110.197L77.197 110.746C76.0645 109.146 74.9905 107.752 73.773 106.215L73.179 106.372C73.1265 107.733 75.129 110.611 75.9485 111.973L75.6155 112.116C68.8765 102.649 65.351 88.3712 66.039 76.7062C66.9005 73.3862 67.5265 71.5757 68.7585 68.3982Z" fill="#E12E09"/>
<path d="M377.81 391.345C379.87 391.665 383.215 391.694 384.505 393.426C379.165 399.854 374.45 407.492 368.75 413.706C363.135 419.833 356.93 425.179 351.925 431.931C351.485 432.527 348.935 431.947 348.18 431.847C345.995 430.428 345.205 429.536 343.75 427.433C343.74 426.339 343.66 419.826 343.73 419.667C346.515 413.666 352.62 400.106 361.07 404.807C363.785 406.316 375.855 393.305 377.81 391.345Z" fill="#C51204"/>
<path d="M172.479 154.651C175.684 155.685 180.491 158.47 183.507 157.19L184.103 155.55L184.487 155.718C187.414 166.143 163.972 157.433 160.195 155.508C145.301 147.913 130.937 137.135 120.662 123.86C119.315 122.12 116.698 119.204 116.01 117.27C117.114 117.183 117.784 118.566 119.077 119.063C121.557 120.015 119.617 119.285 121.932 118.475C124.407 120.252 129.381 126.482 132.074 128.943C138.321 134.648 144.151 138.709 150.956 143.547C154.242 143.247 154.288 145.104 156.416 145.307C160.381 145.685 171.249 148.946 174.198 151.208L174.029 151.895L173.181 152.257L175.865 154.171C174.359 155.149 174.326 154.441 172.479 154.651Z" fill="#C51204"/>
<path d="M150.956 143.547C154.242 143.247 154.288 145.104 156.416 145.307C160.381 145.685 171.249 148.946 174.198 151.208L174.029 151.895L173.181 152.257L175.865 154.171C174.359 155.149 174.326 154.441 172.479 154.651C162.88 151.159 159.163 149.065 150.956 143.547Z" fill="#E12E09"/>
<path d="M68.7585 68.3982C76.7615 43.7302 107.388 28.6757 131.918 29.8447C134.311 29.9582 137.978 29.6342 140.184 30.4812L139.975 31.0317L138.012 31.8082L136.721 32.4757C132.807 33.0962 131.749 35.1892 128.842 36.0607C127.892 36.3452 121.763 36.0162 120.117 36.1952C111.834 37.0952 103.91 41.3377 96.812 45.3872L94.5305 46.6787C84.9265 53.5172 80.1655 58.8602 75.601 69.7487C75.408 69.0292 75.216 68.7812 74.848 68.1382L73.7265 68.5547L72.5295 67.4167L71.8015 68.6787C72.016 67.0992 72.762 65.8672 71.679 64.5352C70.067 66.7287 70.663 67.5052 68.7585 68.3982Z" fill="#E8531E"/>
<path d="M94.5305 46.6787C90.211 46.6197 92.0635 48.1417 89.137 48.3477L88.315 46.9537C88.977 45.3587 98.004 40.7837 100.175 39.7907L100.531 40.1547C99.8295 42.6257 97.6685 42.9217 96.812 45.3872L94.5305 46.6787Z" fill="#E12E09"/>
<path d="M414.05 394.455C416.36 393.829 418.705 393.353 420.72 392.09L421.16 391.817C421.43 400.221 409.395 432.302 402.255 439.211C399.875 441.514 399.16 441.104 396.24 442.184C396.515 438.528 401.89 429.733 401.88 426.809C403.305 424.543 403.32 421.551 404.68 419.163C405.805 412.957 407.34 407.13 408.465 400.677C408.89 399.197 409.135 397.518 409.41 395.99C410.57 395.146 412.585 394.817 414.05 394.455Z" fill="#E8531E"/>
<path d="M409.41 395.99C410.57 395.146 412.585 394.817 414.05 394.455C417.695 410.012 408.99 409.173 406.73 422.151L405.785 423.142L405.055 422.93C404.615 421.407 404.675 420.705 404.68 419.163C405.805 412.957 407.34 407.13 408.465 400.677C408.89 399.197 409.135 397.518 409.41 395.99Z" fill="#DC3107"/>
<path d="M118.836 56.8757L120.353 56.6522L121.026 57.4202C120.795 59.8217 118.407 63.0797 116.263 64.1527L116.612 64.5617L116.159 64.6617L116.817 65.1932C118.206 64.9532 118.487 64.5442 119.495 63.5762C118.332 68.0892 116.089 72.2867 115.595 77.1037C115.424 78.7797 115.075 82.3642 114.36 83.7097C113.54 83.2072 112.812 82.5712 112.067 81.9607C109.418 82.3957 112.084 86.5707 110.553 88.6922C107.345 87.6327 109.242 74.6252 109.901 71.9962C110.747 68.6252 115.884 58.4537 118.836 56.8757Z" fill="#DC3107"/>
<path d="M118.836 56.8757L120.353 56.6522L121.026 57.4202C120.795 59.8217 118.407 63.0797 116.263 64.1527C115.765 61.1792 117.275 59.7467 118.836 56.8757Z" fill="#E8531E"/>
<path d="M193.56 114.785C200.193 109.452 207.327 110.749 214.702 113.646C213.033 115.597 211.84 116.801 209.97 118.566C208.461 119.225 193.252 119.169 189.516 119.497C191.062 117.201 191.525 116.681 193.56 114.785Z" fill="#FCFCF5"/>
<path d="M193.56 114.785C196.238 119.495 205.646 117.394 209.97 118.566C208.461 119.225 193.252 119.169 189.516 119.497C191.062 117.201 191.525 116.681 193.56 114.785Z" fill="#E3DFD2"/>
<path d="M188.951 153.77C194.482 153.613 196.881 159.446 194.237 163.874C193.373 165.321 192.217 164.979 191.065 166.102C183.392 169.806 185.435 161.435 186.415 157.452C186.915 155.416 187.473 155.157 188.951 153.77Z" fill="#E12E09"/>
<path d="M109.718 91.1722C110.528 92.4952 111.002 94.4457 112.538 96.7392C113.885 98.7497 118.1 104.105 118.861 105.733C120.496 109.228 120.956 113.563 123.196 117.304L121.977 117.582C115.982 115.404 109.3 97.5317 109.718 91.1722Z" fill="#E12E09"/>
<path d="M389.155 361.986C391.325 361.363 414.485 361.429 416.245 362.969C415.5 364.149 415.61 363.801 413.94 364.398C409.88 365.19 389.34 365.167 386.885 363.194L389.155 361.986Z" fill="#4A0502"/>
<path d="M305.085 344.745C312.205 345.955 304.795 353.214 302.37 355.575C301.465 356.049 301.515 356.068 300.44 355.916L300.02 354.999C300.5 351.495 303.04 347.596 305.085 344.745Z" fill="#C51204"/>
<path d="M176.706 42.6452C179.307 43.1462 190.409 46.4067 190.94 49.3272L189.986 49.7797C186.584 48.8827 175.823 46.7027 174.961 43.4877L176.706 42.6452Z" fill="#DC3107"/>
<path d="M257.39 232.46C261.55 233.117 267.685 232.659 268.825 237.398L267.89 238.659C266.19 238.429 257.085 235.127 255.915 234.179L257.39 232.46Z" fill="#610802"/>
<path d="M134.223 417.205L134.562 417.064C137.97 415.687 146.193 414.078 149.909 414.862C147.781 416.072 137.01 419.191 133.875 420.275C132.619 419.233 132.469 418.433 131.417 417.663C132.764 417.793 132.954 417.702 134.223 417.205Z" fill="#6F1003"/>
<path d="M366.19 419.845L366.995 420.405C366.06 424.461 361.215 427.154 357.97 430.187L357.275 429.642V428.821C359.49 424.808 362.175 422.061 366.19 419.845Z" fill="#4A0502"/>
<path d="M379.735 404.967L381.375 405.112L381.805 405.688C380.945 408.829 376.365 411.158 374.025 414.174L373.775 414.502L373.155 415.271L372.435 415.241L372.265 414.352C374.47 409.989 375.96 407.889 379.735 404.967Z" fill="#4A0502"/>
<path d="M390.255 439.797C391.63 438.806 392.18 438.268 393.895 438.026L394.735 438.377C395.585 440.909 393.08 444.794 391.21 446.439L390.13 446.624C388.62 444.804 390.46 442.999 390.33 440.154L390.255 439.797Z" fill="#4A0502"/>
<path d="M138.012 31.8082C139.503 31.7767 142.486 31.4652 143.543 32.4582C143.023 35.0192 138.712 36.2747 136.352 36.4377L135.292 35.9697C135.229 34.3947 135.603 33.7277 136.721 32.4757L138.012 31.8082Z" fill="#6F1003"/>
<path d="M408.46 395.885C408.165 391.659 406.545 394.085 406.195 390.963C407.815 390.181 410.225 391.035 411.75 391.786L411.865 392.131C410.025 394.122 409.875 393.689 409.41 395.99C409.135 397.518 408.89 399.197 408.465 400.677C408.21 398.86 408.34 397.705 408.46 395.885Z" fill="#610802"/>
<path d="M226.94 97.3677C227.995 94.7227 228.715 94.5637 230.745 92.7637C241.155 83.5327 262.98 101.823 258.85 112.242L258.12 112.706C256.24 111.378 255.47 106.5 250.425 103.151C243.56 98.5922 238.62 95.1082 230.205 98.6812C228.755 98.4422 227.965 98.4542 226.94 97.3677Z" fill="#6F1003"/>
<defs>
<linearGradient id="paint0_linear_37_279" x1="244.893" y1="429.634" x2="130.426" y2="65.7274" gradientUnits="userSpaceOnUse">
<stop stop-color="#E12605"/>
<stop offset="1" stop-color="#F66F1C"/>
</linearGradient>
<linearGradient id="paint1_linear_37_279" x1="251.379" y1="442.03" x2="100.43" y2="116.917" gradientUnits="userSpaceOnUse">
<stop stop-color="#B40803"/>
<stop offset="1" stop-color="#D81D05"/>
</linearGradient>
<linearGradient id="paint2_linear_37_279" x1="287.318" y1="478.565" x2="67.5932" y2="74.3318" gradientUnits="userSpaceOnUse">
<stop stop-color="#EA1B04"/>
<stop offset="1" stop-color="#F7731B"/>
</linearGradient>
<linearGradient id="paint3_linear_37_279" x1="198.92" y1="317.096" x2="288.124" y2="132.125" gradientUnits="userSpaceOnUse">
<stop stop-color="#F7975E"/>
<stop offset="1" stop-color="#F2B687"/>
</linearGradient>
<linearGradient id="paint4_linear_37_279" x1="172.686" y1="440.267" x2="229.206" y2="50.7248" gradientUnits="userSpaceOnUse">
<stop stop-color="#0570BF"/>
<stop offset="1" stop-color="#048BD4"/>
</linearGradient>
<linearGradient id="paint5_linear_37_279" x1="391.376" y1="53.1788" x2="104.562" y2="450.078" gradientUnits="userSpaceOnUse">
<stop stop-color="#C61700"/>
<stop offset="1" stop-color="#FC570D"/>
</linearGradient>
</defs>
</svg>
